<?xml version="1.0" encoding="utf-8"?>
<!-- Generator: Adobe Illustrator 25.0.0, SVG Export Plug-In . SVG Version: 6.00 Build 0)  -->
<svg version="1.1" id="图层_1" xmlns="http://www.w3.org/2000/svg" xmlns:xlink="http://www.w3.org/1999/xlink" x="0px" y="0px"
	 viewBox="0 0 24 24" style="enable-background:new 0 0 24 24;" xml:space="preserve">
<style type="text/css">
	.st0{fill-rule:evenodd;clip-rule:evenodd;fill:#FFFFFF;}
</style>
<path class="st0" d="M12.2,15.2h-0.3c-2.4,0-4.4-1.9-4.4-4.3V6.3C7.5,3.9,9.4,2,11.8,2h0.3c2.4,0,4.4,1.9,4.4,4.3v4.6
	C16.5,13.3,14.6,15.2,12.2,15.2z M18.6,10.8c0-0.5,0.4-1,1-1s1,0.4,1,1c0,4.3-3.3,7.9-7.5,8.3V21c0,0.5-0.4,1-1,1c-0.5,0-1-0.4-1-1
	v-1.9c-4.2-0.5-7.5-4-7.5-8.3c0-0.5,0.4-1,1-1c0.5,0,1,0.4,1,1c0,3.6,2.9,6.5,6.6,6.5C15.6,17.3,18.6,14.4,18.6,10.8z"/>
</svg>
