<svg id="图层_1" data-name="图层 1" xmlns="http://www.w3.org/2000/svg" xmlns:xlink="http://www.w3.org/1999/xlink" viewBox="0 0 88.33 1650.09"><defs><style>.cls-1{fill:url(#未命名的渐变);}.cls-2{fill:#151515;}.cls-3{fill:url(#未命名的渐变_2);}.cls-4{fill:url(#未命名的渐变_3);}.cls-5{fill:url(#未命名的渐变_4);}.cls-6{fill:url(#未命名的渐变_5);}</style><linearGradient id="未命名的渐变" x1="-936.76" y1="2127.59" x2="-936.76" y2="2195.44" gradientTransform="matrix(0, -1, -1, 0, 2205.67, 656.48)" gradientUnits="userSpaceOnUse"><stop offset="0" stop-color="#161417"/><stop offset="0.62" stop-color="#565e60"/><stop offset="0.69" stop-color="#4b5153"/><stop offset="1" stop-color="#1a1a1a"/></linearGradient><linearGradient id="未命名的渐变_2" x1="-975.87" y1="2117.35" x2="-975.87" y2="2205.67" gradientTransform="matrix(0, -1, -1, 0, 2205.67, 656.49)" xlink:href="#未命名的渐变"/><linearGradient id="未命名的渐变_3" x1="-183.01" y1="1957.08" x2="-183.01" y2="2024.93" gradientTransform="translate(2035.17 239.88) rotate(90)" xlink:href="#未命名的渐变"/><linearGradient id="未命名的渐变_4" x1="-222.14" y1="1946.84" x2="-222.14" y2="2035.17" gradientTransform="translate(2035.17 239.89) rotate(90)" xlink:href="#未命名的渐变"/><linearGradient id="未命名的渐变_5" x1="-168.58" y1="2126.63" x2="-168.58" y2="2196.39" gradientTransform="matrix(0, -1, -1, 0, 2205.67, 656.48)" gradientUnits="userSpaceOnUse"><stop offset="0" stop-color="#b28953"/><stop offset="0.15" stop-color="#b28951"/><stop offset="0.28" stop-color="#bd9b6e"/><stop offset="0.44" stop-color="#c6ab89"/><stop offset="0.53" stop-color="#cab193"/><stop offset="1" stop-color="#b38853"/></linearGradient></defs><rect class="cls-1" x="10.24" y="1558.73" width="67.85" height="69.01"/><path class="cls-2" d="M0,1627.56H0c0-9.8,5.22-17.74,11.67-17.74h65c6.45,0,11.68,7.94,11.68,17.74h0c0,9.79-5.23,17.73-11.68,17.73h-65C5.22,1645.29,0,1637.35,0,1627.56Z" transform="translate(0 -0.01)"/><path class="cls-3" d="M0,1632.37H0c0-9.8,5.22-17.74,11.67-17.74h65c6.45,0,11.68,7.94,11.68,17.74h0c0,9.79-5.23,17.73-11.68,17.73h-65C5.22,1650.1,0,1642.16,0,1632.37Z" transform="translate(0 -0.01)"/><rect class="cls-4" x="10.25" y="22.37" width="67.85" height="69.01"/><path class="cls-2" d="M88.33,22.57v0c0,9.79-5.23,17.73-11.68,17.73h-65C5.23,40.32,0,32.38,0,22.59v0C0,12.78,5.23,4.84,11.68,4.84h65C83.1,4.84,88.33,12.78,88.33,22.57Z" transform="translate(0 -0.01)"/><path class="cls-5" d="M88.33,17.75h0c0,9.8-5.23,17.73-11.68,17.73h-65C5.23,35.49,0,27.56,0,17.76H0C0,8,5.23,0,11.68,0h65C83.1,0,88.33,8,88.33,17.75Z" transform="translate(0 -0.01)"/><rect class="cls-6" x="9.28" y="72.92" width="69.76" height="1504.28"/></svg>